<svg xmlns="http://www.w3.org/2000/svg" viewBox="0 0 92.96 84.22"><defs><style>.cls-1{fill:#fff;}</style></defs><g id="Layer_2" data-name="Layer 2"><g id="Layer_1-2" data-name="Layer 1"><path class="cls-1" d="M84.63,1.56C79.9,1.56,74,4.68,69.68,13.86c-2.21,4.76-2.75,6.06-6.66,14,2.65-12.68,4-12.85,2.65-18C63.76,2.52,56.81.12,52.15,0h0c-.4,0-.8,0-1.24,0C40.69,0,30.09,6.06,20.25,17.41,8,31.61,0,50,0,63.78,0,75.89,6.62,84,16.84,84c8.33,0,15.33-4,25.74-15.33v1.89l-.19,1.14v.57c0,6.62,4.92,11.92,11.17,11.92A18.14,18.14,0,0,0,63.35,81V75.7a10.16,10.16,0,0,1-5.82,2.46c-2.08,0-3.21-1.51-3.21-4.35a14.31,14.31,0,0,1,.56-4L56.37,65h0l6.43-20.36C71,19.12,74,13.11,78.76,13.11a4.22,4.22,0,0,1,3.41,2.08c2.84,4.16,3,4.35,4.73,4.35,3,0,6.06-4.16,6.06-8.52C93,5.54,89.36,1.56,84.63,1.56ZM20.82,78c-4.54,0-7-4-7-11.54,0-10.6,5.11-25.74,13.62-40.12C36.71,11,43.91,4.16,50.91,4.16a8.83,8.83,0,0,1,2.17.27c2.79.92,3.5,4.36,3.34,7.09-.27,4.72-1.73,9.5-6.08,25.39l-1.18,4.31c-1.31,3.34-2.75,6.84-4.31,10.45C38.23,67.56,28.77,78,20.82,78Z"/></g></g></svg>